<?xml version="1.0" encoding="UTF-8" standalone="no"?>
<!DOCTYPE svg PUBLIC "-//W3C//DTD SVG 1.1//EN"
 "http://www.w3.org/Graphics/SVG/1.1/DTD/svg11.dtd">
<!-- Generated by graphviz version 2.36.0 (20140111.2315)
 -->
<!-- Title: controllers_diagram Pages: 1 -->
<svg width="1314pt" height="1356pt"
 viewBox="0.00 0.00 1314.00 1355.85" xmlns="http://www.w3.org/2000/svg" xmlns:xlink="http://www.w3.org/1999/xlink">
<g id="graph0" class="graph" transform="scale(1 1) rotate(0) translate(4 1351.85)">
<title>controllers_diagram</title>
<polygon fill="none" stroke="none" points="-4,4 -4,-1351.85 1310,-1351.85 1310,4 -4,4"/>
<!-- _diagram_info -->
<g id="node1" class="node"><title>_diagram_info</title>
<text text-anchor="start" x="1100" y="-154.6" font-family="Times,serif" font-size="13.00">Controllers diagram</text>
<text text-anchor="start" x="1100" y="-140.6" font-family="Times,serif" font-size="13.00">Date: Nov 08 2016 &#45; 18:31</text>
<text text-anchor="start" x="1100" y="-126.6" font-family="Times,serif" font-size="13.00">Migration version: 20161023120926</text>
<text text-anchor="start" x="1100" y="-112.6" font-family="Times,serif" font-size="13.00">Generated by RailRoady 1.5.2</text>
<text text-anchor="start" x="1100" y="-98.6" font-family="Times,serif" font-size="13.00">http://railroady.prestonlee.com</text>
</g>
<!-- UsersController -->
<g id="node2" class="node"><title>UsersController</title>
<path fill="none" stroke="black" d="M111.779,-1145.04C111.779,-1145.04 190.779,-1145.04 190.779,-1145.04 196.779,-1145.04 202.779,-1151.04 202.779,-1157.04 202.779,-1157.04 202.779,-1316.04 202.779,-1316.04 202.779,-1322.04 196.779,-1328.04 190.779,-1328.04 190.779,-1328.04 111.779,-1328.04 111.779,-1328.04 105.779,-1328.04 99.7789,-1322.04 99.7789,-1316.04 99.7789,-1316.04 99.7789,-1157.04 99.7789,-1157.04 99.7789,-1151.04 105.779,-1145.04 111.779,-1145.04"/>
<text text-anchor="middle" x="151.279" y="-1312.84" font-family="Times,serif" font-size="14.00">UsersController</text>
<polyline fill="none" stroke="black" points="99.7789,-1305.04 202.779,-1305.04 "/>
<text text-anchor="start" x="107.779" y="-1289.84" font-family="Times,serif" font-size="14.00">destroy</text>
<text text-anchor="start" x="107.779" y="-1274.84" font-family="Times,serif" font-size="14.00">edit</text>
<text text-anchor="start" x="107.779" y="-1259.84" font-family="Times,serif" font-size="14.00">index</text>
<text text-anchor="start" x="107.779" y="-1244.84" font-family="Times,serif" font-size="14.00">show</text>
<text text-anchor="start" x="107.779" y="-1229.84" font-family="Times,serif" font-size="14.00">update</text>
<polyline fill="none" stroke="black" points="99.7789,-1222.04 202.779,-1222.04 "/>
<polyline fill="none" stroke="black" points="99.7789,-1198.04 202.779,-1198.04 "/>
<text text-anchor="start" x="107.779" y="-1182.84" font-family="Times,serif" font-size="14.00">_layout</text>
<text text-anchor="start" x="107.779" y="-1167.84" font-family="Times,serif" font-size="14.00">set_user</text>
<text text-anchor="start" x="107.779" y="-1152.84" font-family="Times,serif" font-size="14.00">user_params</text>
</g>
<!-- WelcomeController -->
<g id="node3" class="node"><title>WelcomeController</title>
<path fill="none" stroke="black" d="M840.333,-1184.37C840.333,-1184.37 941.333,-1184.37 941.333,-1184.37 947.333,-1184.37 953.333,-1190.37 953.333,-1196.37 953.333,-1196.37 953.333,-1265.37 953.333,-1265.37 953.333,-1271.37 947.333,-1277.37 941.333,-1277.37 941.333,-1277.37 840.333,-1277.37 840.333,-1277.37 834.333,-1277.37 828.333,-1271.37 828.333,-1265.37 828.333,-1265.37 828.333,-1196.37 828.333,-1196.37 828.333,-1190.37 834.333,-1184.37 840.333,-1184.37"/>
<text text-anchor="middle" x="890.833" y="-1262.17" font-family="Times,serif" font-size="14.00">WelcomeController</text>
<polyline fill="none" stroke="black" points="828.333,-1254.37 953.333,-1254.37 "/>
<text text-anchor="start" x="836.333" y="-1239.17" font-family="Times,serif" font-size="14.00">index</text>
<polyline fill="none" stroke="black" points="828.333,-1231.37 953.333,-1231.37 "/>
<polyline fill="none" stroke="black" points="828.333,-1207.37 953.333,-1207.37 "/>
<text text-anchor="start" x="836.333" y="-1192.17" font-family="Times,serif" font-size="14.00">_layout</text>
</g>
<!-- Users::RegistrationsController -->
<g id="node4" class="node"><title>Users::RegistrationsController</title>
<path fill="none" stroke="black" d="M766.804,-0.5C766.804,-0.5 935.804,-0.5 935.804,-0.5 941.804,-0.5 947.804,-6.5 947.804,-12.5 947.804,-12.5 947.804,-305.5 947.804,-305.5 947.804,-311.5 941.804,-317.5 935.804,-317.5 935.804,-317.5 766.804,-317.5 766.804,-317.5 760.804,-317.5 754.804,-311.5 754.804,-305.5 754.804,-305.5 754.804,-12.5 754.804,-12.5 754.804,-6.5 760.804,-0.5 766.804,-0.5"/>
<text text-anchor="middle" x="851.304" y="-302.3" font-family="Times,serif" font-size="14.00">Users::RegistrationsController</text>
<polyline fill="none" stroke="black" points="754.804,-294.5 947.804,-294.5 "/>
<text text-anchor="start" x="762.804" y="-279.3" font-family="Times,serif" font-size="14.00">cancel</text>
<text text-anchor="start" x="762.804" y="-264.3" font-family="Times,serif" font-size="14.00">create</text>
<text text-anchor="start" x="762.804" y="-249.3" font-family="Times,serif" font-size="14.00">destroy</text>
<text text-anchor="start" x="762.804" y="-234.3" font-family="Times,serif" font-size="14.00">edit</text>
<text text-anchor="start" x="762.804" y="-219.3" font-family="Times,serif" font-size="14.00">new</text>
<text text-anchor="start" x="762.804" y="-204.3" font-family="Times,serif" font-size="14.00">update</text>
<polyline fill="none" stroke="black" points="754.804,-196.5 947.804,-196.5 "/>
<text text-anchor="start" x="762.804" y="-181.3" font-family="Times,serif" font-size="14.00">account_update_params</text>
<text text-anchor="start" x="762.804" y="-166.3" font-family="Times,serif" font-size="14.00">after_inactive_sign_up_path_for</text>
<text text-anchor="start" x="762.804" y="-151.3" font-family="Times,serif" font-size="14.00">after_sign_up_path_for</text>
<text text-anchor="start" x="762.804" y="-136.3" font-family="Times,serif" font-size="14.00">after_update_path_for</text>
<text text-anchor="start" x="762.804" y="-121.3" font-family="Times,serif" font-size="14.00">authenticate_scope!</text>
<text text-anchor="start" x="762.804" y="-106.3" font-family="Times,serif" font-size="14.00">build_resource</text>
<text text-anchor="start" x="762.804" y="-91.3" font-family="Times,serif" font-size="14.00">sign_up</text>
<text text-anchor="start" x="762.804" y="-76.3" font-family="Times,serif" font-size="14.00">sign_up_params</text>
<text text-anchor="start" x="762.804" y="-61.3" font-family="Times,serif" font-size="14.00">translation_scope</text>
<text text-anchor="start" x="762.804" y="-46.3" font-family="Times,serif" font-size="14.00">update_needs_confirmation?</text>
<text text-anchor="start" x="762.804" y="-31.3" font-family="Times,serif" font-size="14.00">update_resource</text>
<polyline fill="none" stroke="black" points="754.804,-23.5 947.804,-23.5 "/>
<text text-anchor="start" x="762.804" y="-8.3" font-family="Times,serif" font-size="14.00">_layout</text>
</g>
<!-- ApplicationController -->
<g id="node5" class="node"><title>ApplicationController</title>
<path fill="none" stroke="black" d="M440.689,-905.032C440.689,-905.032 610.689,-905.032 610.689,-905.032 616.689,-905.032 622.689,-911.032 622.689,-917.032 622.689,-917.032 622.689,-985.032 622.689,-985.032 622.689,-991.032 616.689,-997.032 610.689,-997.032 610.689,-997.032 440.689,-997.032 440.689,-997.032 434.689,-997.032 428.689,-991.032 428.689,-985.032 428.689,-985.032 428.689,-917.032 428.689,-917.032 428.689,-911.032 434.689,-905.032 440.689,-905.032"/>
<text text-anchor="middle" x="525.689" y="-981.832" font-family="Times,serif" font-size="14.00">ApplicationController</text>
<polyline fill="none" stroke="black" points="428.689,-974.032 622.689,-974.032 "/>
<text text-anchor="start" x="436.689" y="-958.832" font-family="Times,serif" font-size="14.00">after_sign_in_path_for</text>
<polyline fill="none" stroke="black" points="428.689,-951.032 622.689,-951.032 "/>
<text text-anchor="start" x="436.689" y="-935.832" font-family="Times,serif" font-size="14.00">configure_permitted_parameters</text>
<polyline fill="none" stroke="black" points="428.689,-928.032 622.689,-928.032 "/>
<text text-anchor="start" x="436.689" y="-912.832" font-family="Times,serif" font-size="14.00">_layout</text>
</g>
<!-- ApplicationController&#45;&gt;UsersController -->
<g id="edge1" class="edge"><title>ApplicationController&#45;&gt;UsersController</title>
<path fill="none" stroke="black" d="M465.118,-997.222C392.369,-1052.7 271.591,-1144.8 203.018,-1197.09"/>
</g>
<!-- ApplicationController&#45;&gt;WelcomeController -->
<g id="edge2" class="edge"><title>ApplicationController&#45;&gt;WelcomeController</title>
<path fill="none" stroke="black" d="M585.985,-997.242C653.539,-1049.01 762.429,-1132.46 830.143,-1184.36"/>
</g>
<!-- UploadsController -->
<g id="node6" class="node"><title>UploadsController</title>
<path fill="none" stroke="black" d="M476.075,-1209.35C476.075,-1209.35 569.075,-1209.35 569.075,-1209.35 575.075,-1209.35 581.075,-1215.35 581.075,-1221.35 581.075,-1221.35 581.075,-1335.35 581.075,-1335.35 581.075,-1341.35 575.075,-1347.35 569.075,-1347.35 569.075,-1347.35 476.075,-1347.35 476.075,-1347.35 470.075,-1347.35 464.075,-1341.35 464.075,-1335.35 464.075,-1335.35 464.075,-1221.35 464.075,-1221.35 464.075,-1215.35 470.075,-1209.35 476.075,-1209.35"/>
<text text-anchor="middle" x="522.575" y="-1332.15" font-family="Times,serif" font-size="14.00">UploadsController</text>
<polyline fill="none" stroke="black" points="464.075,-1324.35 581.075,-1324.35 "/>
<text text-anchor="start" x="472.075" y="-1309.15" font-family="Times,serif" font-size="14.00">create</text>
<text text-anchor="start" x="472.075" y="-1294.15" font-family="Times,serif" font-size="14.00">edit</text>
<text text-anchor="start" x="472.075" y="-1279.15" font-family="Times,serif" font-size="14.00">index</text>
<polyline fill="none" stroke="black" points="464.075,-1271.35 581.075,-1271.35 "/>
<polyline fill="none" stroke="black" points="464.075,-1247.35 581.075,-1247.35 "/>
<text text-anchor="start" x="472.075" y="-1232.15" font-family="Times,serif" font-size="14.00">_layout</text>
<text text-anchor="start" x="472.075" y="-1217.15" font-family="Times,serif" font-size="14.00">upload_params</text>
</g>
<!-- ApplicationController&#45;&gt;UploadsController -->
<g id="edge4" class="edge"><title>ApplicationController&#45;&gt;UploadsController</title>
<path fill="none" stroke="black" d="M525.25,-997.234C524.724,-1052.48 523.84,-1145.46 523.233,-1209.26"/>
</g>
<!-- DeviseController -->
<g id="node7" class="node"><title>DeviseController</title>
<path fill="none" stroke="black" d="M435.017,-456.441C435.017,-456.441 602.017,-456.441 602.017,-456.441 608.017,-456.441 614.017,-462.441 614.017,-468.441 614.017,-468.441 614.017,-836.441 614.017,-836.441 614.017,-842.441 608.017,-848.441 602.017,-848.441 602.017,-848.441 435.017,-848.441 435.017,-848.441 429.017,-848.441 423.017,-842.441 423.017,-836.441 423.017,-836.441 423.017,-468.441 423.017,-468.441 423.017,-462.441 429.017,-456.441 435.017,-456.441"/>
<text text-anchor="middle" x="518.517" y="-833.241" font-family="Times,serif" font-size="14.00">DeviseController</text>
<polyline fill="none" stroke="black" points="423.017,-825.441 614.017,-825.441 "/>
<text text-anchor="start" x="431.017" y="-810.241" font-family="Times,serif" font-size="14.00">_prefixes</text>
<polyline fill="none" stroke="black" points="423.017,-802.441 614.017,-802.441 "/>
<text text-anchor="start" x="431.017" y="-787.241" font-family="Times,serif" font-size="14.00">assert_is_devise_resource!</text>
<text text-anchor="start" x="431.017" y="-772.241" font-family="Times,serif" font-size="14.00">clean_up_passwords</text>
<text text-anchor="start" x="431.017" y="-757.241" font-family="Times,serif" font-size="14.00">devise_i18n_options</text>
<text text-anchor="start" x="431.017" y="-742.241" font-family="Times,serif" font-size="14.00">devise_mapping</text>
<text text-anchor="start" x="431.017" y="-727.241" font-family="Times,serif" font-size="14.00">find_message</text>
<text text-anchor="start" x="431.017" y="-712.241" font-family="Times,serif" font-size="14.00">navigational_formats</text>
<text text-anchor="start" x="431.017" y="-697.241" font-family="Times,serif" font-size="14.00">require_no_authentication</text>
<text text-anchor="start" x="431.017" y="-682.241" font-family="Times,serif" font-size="14.00">resource</text>
<text text-anchor="start" x="431.017" y="-667.241" font-family="Times,serif" font-size="14.00">resource=</text>
<text text-anchor="start" x="431.017" y="-652.241" font-family="Times,serif" font-size="14.00">resource_class</text>
<text text-anchor="start" x="431.017" y="-637.241" font-family="Times,serif" font-size="14.00">resource_name</text>
<text text-anchor="start" x="431.017" y="-622.241" font-family="Times,serif" font-size="14.00">resource_params</text>
<text text-anchor="start" x="431.017" y="-607.241" font-family="Times,serif" font-size="14.00">respond_with_navigational</text>
<text text-anchor="start" x="431.017" y="-592.241" font-family="Times,serif" font-size="14.00">scope_name</text>
<text text-anchor="start" x="431.017" y="-577.241" font-family="Times,serif" font-size="14.00">set_flash_message</text>
<text text-anchor="start" x="431.017" y="-562.241" font-family="Times,serif" font-size="14.00">set_flash_message!</text>
<text text-anchor="start" x="431.017" y="-547.241" font-family="Times,serif" font-size="14.00">set_minimum_password_length</text>
<text text-anchor="start" x="431.017" y="-532.241" font-family="Times,serif" font-size="14.00">signed_in_resource</text>
<text text-anchor="start" x="431.017" y="-517.241" font-family="Times,serif" font-size="14.00">successfully_sent?</text>
<text text-anchor="start" x="431.017" y="-502.241" font-family="Times,serif" font-size="14.00">translation_scope</text>
<text text-anchor="start" x="431.017" y="-487.241" font-family="Times,serif" font-size="14.00">unknown_action!</text>
<polyline fill="none" stroke="black" points="423.017,-479.441 614.017,-479.441 "/>
<text text-anchor="start" x="431.017" y="-464.241" font-family="Times,serif" font-size="14.00">_layout</text>
</g>
<!-- ApplicationController&#45;&gt;DeviseController -->
<g id="edge5" class="edge"><title>ApplicationController&#45;&gt;DeviseController</title>
<path fill="none" stroke="black" d="M524.584,-905.032C524.195,-888.837 523.73,-869.461 523.232,-848.739"/>
</g>
<!-- Devise::ConfirmationsController -->
<g id="node8" class="node"><title>Devise::ConfirmationsController</title>
<path fill="none" stroke="black" d="M12,-457.642C12,-457.642 288,-457.642 288,-457.642 294,-457.642 300,-463.642 300,-469.642 300,-469.642 300,-597.642 300,-597.642 300,-603.642 294,-609.642 288,-609.642 288,-609.642 12,-609.642 12,-609.642 6,-609.642 0,-603.642 0,-597.642 0,-597.642 0,-469.642 0,-469.642 0,-463.642 6,-457.642 12,-457.642"/>
<text text-anchor="middle" x="150" y="-594.442" font-family="Times,serif" font-size="14.00">Devise::ConfirmationsController</text>
<polyline fill="none" stroke="black" points="0,-586.642 300,-586.642 "/>
<text text-anchor="start" x="8" y="-571.442" font-family="Times,serif" font-size="14.00">create</text>
<text text-anchor="start" x="8" y="-556.442" font-family="Times,serif" font-size="14.00">new</text>
<text text-anchor="start" x="8" y="-541.442" font-family="Times,serif" font-size="14.00">show</text>
<polyline fill="none" stroke="black" points="0,-533.642 300,-533.642 "/>
<text text-anchor="start" x="8" y="-518.442" font-family="Times,serif" font-size="14.00">after_confirmation_path_for</text>
<text text-anchor="start" x="8" y="-503.442" font-family="Times,serif" font-size="14.00">after_resending_confirmation_instructions_path_for</text>
<text text-anchor="start" x="8" y="-488.442" font-family="Times,serif" font-size="14.00">translation_scope</text>
<polyline fill="none" stroke="black" points="0,-480.642 300,-480.642 "/>
<text text-anchor="start" x="8" y="-465.442" font-family="Times,serif" font-size="14.00">_layout</text>
</g>
<!-- DeviseController&#45;&gt;Devise::ConfirmationsController -->
<g id="edge6" class="edge"><title>DeviseController&#45;&gt;Devise::ConfirmationsController</title>
<path fill="none" stroke="black" d="M422.655,-621.538C385.228,-609.473 341.424,-595.351 300.011,-582.001"/>
</g>
<!-- Devise::OmniauthCallbacksController -->
<g id="node9" class="node"><title>Devise::OmniauthCallbacksController</title>
<path fill="none" stroke="black" d="M787.805,-770.669C787.805,-770.669 988.805,-770.669 988.805,-770.669 994.805,-770.669 1000.81,-776.669 1000.81,-782.669 1000.81,-782.669 1000.81,-910.669 1000.81,-910.669 1000.81,-916.669 994.805,-922.669 988.805,-922.669 988.805,-922.669 787.805,-922.669 787.805,-922.669 781.805,-922.669 775.805,-916.669 775.805,-910.669 775.805,-910.669 775.805,-782.669 775.805,-782.669 775.805,-776.669 781.805,-770.669 787.805,-770.669"/>
<text text-anchor="middle" x="888.305" y="-907.469" font-family="Times,serif" font-size="14.00">Devise::OmniauthCallbacksController</text>
<polyline fill="none" stroke="black" points="775.805,-899.669 1000.81,-899.669 "/>
<text text-anchor="start" x="783.805" y="-884.469" font-family="Times,serif" font-size="14.00">failure</text>
<text text-anchor="start" x="783.805" y="-869.469" font-family="Times,serif" font-size="14.00">passthru</text>
<polyline fill="none" stroke="black" points="775.805,-861.669 1000.81,-861.669 "/>
<text text-anchor="start" x="783.805" y="-846.469" font-family="Times,serif" font-size="14.00">after_omniauth_failure_path_for</text>
<text text-anchor="start" x="783.805" y="-831.469" font-family="Times,serif" font-size="14.00">failed_strategy</text>
<text text-anchor="start" x="783.805" y="-816.469" font-family="Times,serif" font-size="14.00">failure_message</text>
<text text-anchor="start" x="783.805" y="-801.469" font-family="Times,serif" font-size="14.00">translation_scope</text>
<polyline fill="none" stroke="black" points="775.805,-793.669 1000.81,-793.669 "/>
<text text-anchor="start" x="783.805" y="-778.469" font-family="Times,serif" font-size="14.00">_layout</text>
</g>
<!-- DeviseController&#45;&gt;Devise::OmniauthCallbacksController -->
<g id="edge7" class="edge"><title>DeviseController&#45;&gt;Devise::OmniauthCallbacksController</title>
<path fill="none" stroke="black" d="M614.227,-702.712C663.554,-728.62 724.016,-760.378 775.59,-787.466"/>
</g>
<!-- Devise::PasswordsController -->
<g id="node10" class="node"><title>Devise::PasswordsController</title>
<path fill="none" stroke="black" d="M42.7195,-65.7425C42.7195,-65.7425 320.719,-65.7425 320.719,-65.7425 326.719,-65.7425 332.719,-71.7425 332.719,-77.7425 332.719,-77.7425 332.719,-250.742 332.719,-250.742 332.719,-256.742 326.719,-262.742 320.719,-262.742 320.719,-262.742 42.7195,-262.742 42.7195,-262.742 36.7195,-262.742 30.7195,-256.742 30.7195,-250.742 30.7195,-250.742 30.7195,-77.7425 30.7195,-77.7425 30.7195,-71.7425 36.7195,-65.7425 42.7195,-65.7425"/>
<text text-anchor="middle" x="181.719" y="-247.542" font-family="Times,serif" font-size="14.00">Devise::PasswordsController</text>
<polyline fill="none" stroke="black" points="30.7195,-239.742 332.719,-239.742 "/>
<text text-anchor="start" x="38.7195" y="-224.542" font-family="Times,serif" font-size="14.00">create</text>
<text text-anchor="start" x="38.7195" y="-209.542" font-family="Times,serif" font-size="14.00">edit</text>
<text text-anchor="start" x="38.7195" y="-194.542" font-family="Times,serif" font-size="14.00">new</text>
<text text-anchor="start" x="38.7195" y="-179.542" font-family="Times,serif" font-size="14.00">update</text>
<polyline fill="none" stroke="black" points="30.7195,-171.742 332.719,-171.742 "/>
<text text-anchor="start" x="38.7195" y="-156.542" font-family="Times,serif" font-size="14.00">after_resetting_password_path_for</text>
<text text-anchor="start" x="38.7195" y="-141.542" font-family="Times,serif" font-size="14.00">after_sending_reset_password_instructions_path_for</text>
<text text-anchor="start" x="38.7195" y="-126.542" font-family="Times,serif" font-size="14.00">assert_reset_token_passed</text>
<text text-anchor="start" x="38.7195" y="-111.542" font-family="Times,serif" font-size="14.00">translation_scope</text>
<text text-anchor="start" x="38.7195" y="-96.5425" font-family="Times,serif" font-size="14.00">unlockable?</text>
<polyline fill="none" stroke="black" points="30.7195,-88.7425 332.719,-88.7425 "/>
<text text-anchor="start" x="38.7195" y="-73.5425" font-family="Times,serif" font-size="14.00">_layout</text>
</g>
<!-- DeviseController&#45;&gt;Devise::PasswordsController -->
<g id="edge8" class="edge"><title>DeviseController&#45;&gt;Devise::PasswordsController</title>
<path fill="none" stroke="black" d="M422.905,-513.849C367.674,-433.789 299.507,-334.98 249.749,-262.853"/>
</g>
<!-- Devise::SessionsController -->
<g id="node11" class="node"><title>Devise::SessionsController</title>
<path fill="none" stroke="black" d="M816.63,-413.381C816.63,-413.381 956.63,-413.381 956.63,-413.381 962.63,-413.381 968.63,-419.381 968.63,-425.381 968.63,-425.381 968.63,-613.381 968.63,-613.381 968.63,-619.381 962.63,-625.381 956.63,-625.381 956.63,-625.381 816.63,-625.381 816.63,-625.381 810.63,-625.381 804.63,-619.381 804.63,-613.381 804.63,-613.381 804.63,-425.381 804.63,-425.381 804.63,-419.381 810.63,-413.381 816.63,-413.381"/>
<text text-anchor="middle" x="886.63" y="-610.181" font-family="Times,serif" font-size="14.00">Devise::SessionsController</text>
<polyline fill="none" stroke="black" points="804.63,-602.381 968.63,-602.381 "/>
<text text-anchor="start" x="812.63" y="-587.181" font-family="Times,serif" font-size="14.00">create</text>
<text text-anchor="start" x="812.63" y="-572.181" font-family="Times,serif" font-size="14.00">destroy</text>
<text text-anchor="start" x="812.63" y="-557.181" font-family="Times,serif" font-size="14.00">new</text>
<polyline fill="none" stroke="black" points="804.63,-549.381 968.63,-549.381 "/>
<text text-anchor="start" x="812.63" y="-534.181" font-family="Times,serif" font-size="14.00">auth_options</text>
<text text-anchor="start" x="812.63" y="-519.181" font-family="Times,serif" font-size="14.00">serialize_options</text>
<text text-anchor="start" x="812.63" y="-504.181" font-family="Times,serif" font-size="14.00">sign_in_params</text>
<text text-anchor="start" x="812.63" y="-489.181" font-family="Times,serif" font-size="14.00">translation_scope</text>
<polyline fill="none" stroke="black" points="804.63,-481.381 968.63,-481.381 "/>
<text text-anchor="start" x="812.63" y="-466.181" font-family="Times,serif" font-size="14.00">_layout</text>
<text text-anchor="start" x="812.63" y="-451.181" font-family="Times,serif" font-size="14.00">all_signed_out?</text>
<text text-anchor="start" x="812.63" y="-436.181" font-family="Times,serif" font-size="14.00">respond_to_on_destroy</text>
<text text-anchor="start" x="812.63" y="-421.181" font-family="Times,serif" font-size="14.00">verify_signed_out_user</text>
</g>
<!-- DeviseController&#45;&gt;Devise::SessionsController -->
<g id="edge9" class="edge"><title>DeviseController&#45;&gt;Devise::SessionsController</title>
<path fill="none" stroke="black" d="M614.273,-617.829C673.282,-596.499 748.16,-569.433 804.464,-549.081"/>
</g>
<!-- Devise::RegistrationsController -->
<g id="node12" class="node"><title>Devise::RegistrationsController</title>
<path fill="none" stroke="black" d="M430.997,-124.32C430.997,-124.32 599.997,-124.32 599.997,-124.32 605.997,-124.32 611.997,-130.32 611.997,-136.32 611.997,-136.32 611.997,-429.32 611.997,-429.32 611.997,-435.32 605.997,-441.32 599.997,-441.32 599.997,-441.32 430.997,-441.32 430.997,-441.32 424.997,-441.32 418.997,-435.32 418.997,-429.32 418.997,-429.32 418.997,-136.32 418.997,-136.32 418.997,-130.32 424.997,-124.32 430.997,-124.32"/>
<text text-anchor="middle" x="515.497" y="-426.12" font-family="Times,serif" font-size="14.00">Devise::RegistrationsController</text>
<polyline fill="none" stroke="black" points="418.997,-418.32 611.997,-418.32 "/>
<text text-anchor="start" x="426.997" y="-403.12" font-family="Times,serif" font-size="14.00">cancel</text>
<text text-anchor="start" x="426.997" y="-388.12" font-family="Times,serif" font-size="14.00">create</text>
<text text-anchor="start" x="426.997" y="-373.12" font-family="Times,serif" font-size="14.00">destroy</text>
<text text-anchor="start" x="426.997" y="-358.12" font-family="Times,serif" font-size="14.00">edit</text>
<text text-anchor="start" x="426.997" y="-343.12" font-family="Times,serif" font-size="14.00">new</text>
<text text-anchor="start" x="426.997" y="-328.12" font-family="Times,serif" font-size="14.00">update</text>
<polyline fill="none" stroke="black" points="418.997,-320.32 611.997,-320.32 "/>
<text text-anchor="start" x="426.997" y="-305.12" font-family="Times,serif" font-size="14.00">account_update_params</text>
<text text-anchor="start" x="426.997" y="-290.12" font-family="Times,serif" font-size="14.00">after_inactive_sign_up_path_for</text>
<text text-anchor="start" x="426.997" y="-275.12" font-family="Times,serif" font-size="14.00">after_sign_up_path_for</text>
<text text-anchor="start" x="426.997" y="-260.12" font-family="Times,serif" font-size="14.00">after_update_path_for</text>
<text text-anchor="start" x="426.997" y="-245.12" font-family="Times,serif" font-size="14.00">authenticate_scope!</text>
<text text-anchor="start" x="426.997" y="-230.12" font-family="Times,serif" font-size="14.00">build_resource</text>
<text text-anchor="start" x="426.997" y="-215.12" font-family="Times,serif" font-size="14.00">sign_up</text>
<text text-anchor="start" x="426.997" y="-200.12" font-family="Times,serif" font-size="14.00">sign_up_params</text>
<text text-anchor="start" x="426.997" y="-185.12" font-family="Times,serif" font-size="14.00">translation_scope</text>
<text text-anchor="start" x="426.997" y="-170.12" font-family="Times,serif" font-size="14.00">update_needs_confirmation?</text>
<text text-anchor="start" x="426.997" y="-155.12" font-family="Times,serif" font-size="14.00">update_resource</text>
<polyline fill="none" stroke="black" points="418.997,-147.32 611.997,-147.32 "/>
<text text-anchor="start" x="426.997" y="-132.12" font-family="Times,serif" font-size="14.00">_layout</text>
</g>
<!-- DeviseController&#45;&gt;Devise::RegistrationsController -->
<g id="edge10" class="edge"><title>DeviseController&#45;&gt;Devise::RegistrationsController</title>
<path fill="none" stroke="black" d="M516.914,-456.267C516.874,-451.342 516.834,-446.429 516.794,-441.54"/>
</g>
<!-- Devise::UnlocksController -->
<g id="node13" class="node"><title>Devise::UnlocksController</title>
<path fill="none" stroke="black" d="M38.2609,-785.534C38.2609,-785.534 270.261,-785.534 270.261,-785.534 276.261,-785.534 282.261,-791.534 282.261,-797.534 282.261,-797.534 282.261,-925.534 282.261,-925.534 282.261,-931.534 276.261,-937.534 270.261,-937.534 270.261,-937.534 38.2609,-937.534 38.2609,-937.534 32.2609,-937.534 26.2609,-931.534 26.2609,-925.534 26.2609,-925.534 26.2609,-797.534 26.2609,-797.534 26.2609,-791.534 32.2609,-785.534 38.2609,-785.534"/>
<text text-anchor="middle" x="154.261" y="-922.334" font-family="Times,serif" font-size="14.00">Devise::UnlocksController</text>
<polyline fill="none" stroke="black" points="26.2609,-914.534 282.261,-914.534 "/>
<text text-anchor="start" x="34.2609" y="-899.334" font-family="Times,serif" font-size="14.00">create</text>
<text text-anchor="start" x="34.2609" y="-884.334" font-family="Times,serif" font-size="14.00">new</text>
<text text-anchor="start" x="34.2609" y="-869.334" font-family="Times,serif" font-size="14.00">show</text>
<polyline fill="none" stroke="black" points="26.2609,-861.534 282.261,-861.534 "/>
<text text-anchor="start" x="34.2609" y="-846.334" font-family="Times,serif" font-size="14.00">after_sending_unlock_instructions_path_for</text>
<text text-anchor="start" x="34.2609" y="-831.334" font-family="Times,serif" font-size="14.00">after_unlock_path_for</text>
<text text-anchor="start" x="34.2609" y="-816.334" font-family="Times,serif" font-size="14.00">translation_scope</text>
<polyline fill="none" stroke="black" points="26.2609,-808.534 282.261,-808.534 "/>
<text text-anchor="start" x="34.2609" y="-793.334" font-family="Times,serif" font-size="14.00">_layout</text>
</g>
<!-- DeviseController&#45;&gt;Devise::UnlocksController -->
<g id="edge11" class="edge"><title>DeviseController&#45;&gt;Devise::UnlocksController</title>
<path fill="none" stroke="black" d="M422.813,-707.378C379.918,-732.001 328.696,-761.403 282.544,-787.896"/>
</g>
<!-- Devise::RegistrationsController&#45;&gt;Users::RegistrationsController -->
<g id="edge3" class="edge"><title>Devise::RegistrationsController&#45;&gt;Users::RegistrationsController</title>
<path fill="none" stroke="black" d="M612.176,-247.172C656.934,-230.669 709.981,-211.109 754.726,-194.61"/>
</g>
</g>
</svg>
