<?xml version="1.0" encoding="UTF-8" standalone="no"?>
<!DOCTYPE svg PUBLIC "-//W3C//DTD SVG 1.1//EN"
 "http://www.w3.org/Graphics/SVG/1.1/DTD/svg11.dtd">
<!-- Generated by graphviz version 2.36.0 (20140111.2315)
 -->
<!-- Title: models_diagram Pages: 1 -->
<svg width="481pt" height="748pt"
 viewBox="0.00 0.00 481.00 748.00" xmlns="http://www.w3.org/2000/svg" xmlns:xlink="http://www.w3.org/1999/xlink">
<g id="graph0" class="graph" transform="scale(1 1) rotate(0) translate(4 744)">
<title>models_diagram</title>
<polygon fill="none" stroke="none" points="-4,4 -4,-744 477,-744 477,4 -4,4"/>
<!-- _diagram_info -->
<g id="node1" class="node"><title>_diagram_info</title>
<text text-anchor="start" x="8" y="-725.6" font-family="Times,serif" font-size="13.00">Models diagram</text>
<text text-anchor="start" x="8" y="-711.6" font-family="Times,serif" font-size="13.00">Date: Nov 08 2016 &#45; 18:31</text>
<text text-anchor="start" x="8" y="-697.6" font-family="Times,serif" font-size="13.00">Migration version: 20161023120926</text>
<text text-anchor="start" x="8" y="-683.6" font-family="Times,serif" font-size="13.00">Generated by RailRoady 1.5.2</text>
<text text-anchor="start" x="8" y="-669.6" font-family="Times,serif" font-size="13.00">http://railroady.prestonlee.com</text>
</g>
<!-- Upload -->
<g id="node2" class="node"><title>Upload</title>
<path fill="none" stroke="black" d="M233.5,-0.5C233.5,-0.5 384.5,-0.5 384.5,-0.5 390.5,-0.5 396.5,-6.5 396.5,-12.5 396.5,-12.5 396.5,-169.5 396.5,-169.5 396.5,-175.5 390.5,-181.5 384.5,-181.5 384.5,-181.5 233.5,-181.5 233.5,-181.5 227.5,-181.5 221.5,-175.5 221.5,-169.5 221.5,-169.5 221.5,-12.5 221.5,-12.5 221.5,-6.5 227.5,-0.5 233.5,-0.5"/>
<text text-anchor="middle" x="309" y="-166.3" font-family="Times,serif" font-size="14.00">Upload</text>
<polyline fill="none" stroke="black" points="221.5,-158.5 396.5,-158.5 "/>
<text text-anchor="start" x="229.5" y="-143.3" font-family="Times,serif" font-size="14.00">id :INTEGER</text>
<text text-anchor="start" x="229.5" y="-128.3" font-family="Times,serif" font-size="14.00">created_at :datetime</text>
<text text-anchor="start" x="229.5" y="-113.3" font-family="Times,serif" font-size="14.00">updated_at :datetime</text>
<text text-anchor="start" x="229.5" y="-98.3" font-family="Times,serif" font-size="14.00">image_file_name :varchar</text>
<text text-anchor="start" x="229.5" y="-83.3" font-family="Times,serif" font-size="14.00">image_content_type :varchar</text>
<text text-anchor="start" x="229.5" y="-68.3" font-family="Times,serif" font-size="14.00">image_file_size :integer</text>
<text text-anchor="start" x="229.5" y="-53.3" font-family="Times,serif" font-size="14.00">image_updated_at :datetime</text>
<text text-anchor="start" x="229.5" y="-38.3" font-family="Times,serif" font-size="14.00">user_id :integer</text>
<text text-anchor="start" x="229.5" y="-23.3" font-family="Times,serif" font-size="14.00">public_id :varchar</text>
<text text-anchor="start" x="229.5" y="-8.3" font-family="Times,serif" font-size="14.00">url :varchar</text>
</g>
<!-- ApplicationRecord -->
<g id="node3" class="node"><title>ApplicationRecord</title>
<ellipse fill="none" stroke="black" cx="309" cy="-701" rx="77.0154" ry="18"/>
<text text-anchor="middle" x="309" y="-697.3" font-family="Times,serif" font-size="14.00">ApplicationRecord</text>
</g>
<!-- ApplicationRecord&#45;&gt;Upload -->
<g id="edge1" class="edge"><title>ApplicationRecord&#45;&gt;Upload</title>
<path fill="none" stroke="black" d="M294.936,-683.043C284.106,-668.813 270.004,-647.428 264,-626 215.077,-451.391 233.051,-396.673 264,-218 266.061,-206.099 269.142,-193.833 272.743,-181.843"/>
</g>
<!-- User -->
<g id="node4" class="node"><title>User</title>
<path fill="none" stroke="black" d="M285,-219C285,-219 461,-219 461,-219 467,-219 473,-225 473,-231 473,-231 473,-613 473,-613 473,-619 467,-625 461,-625 461,-625 285,-625 285,-625 279,-625 273,-619 273,-613 273,-613 273,-231 273,-231 273,-225 279,-219 285,-219"/>
<text text-anchor="middle" x="373" y="-609.8" font-family="Times,serif" font-size="14.00">User</text>
<polyline fill="none" stroke="black" points="273,-602 473,-602 "/>
<text text-anchor="start" x="281" y="-586.8" font-family="Times,serif" font-size="14.00">id :INTEGER</text>
<text text-anchor="start" x="281" y="-571.8" font-family="Times,serif" font-size="14.00">email :varchar</text>
<text text-anchor="start" x="281" y="-556.8" font-family="Times,serif" font-size="14.00">encrypted_password :varchar</text>
<text text-anchor="start" x="281" y="-541.8" font-family="Times,serif" font-size="14.00">reset_password_token :varchar</text>
<text text-anchor="start" x="281" y="-526.8" font-family="Times,serif" font-size="14.00">reset_password_sent_at :datetime</text>
<text text-anchor="start" x="281" y="-511.8" font-family="Times,serif" font-size="14.00">remember_created_at :datetime</text>
<text text-anchor="start" x="281" y="-496.8" font-family="Times,serif" font-size="14.00">sign_in_count :integer</text>
<text text-anchor="start" x="281" y="-481.8" font-family="Times,serif" font-size="14.00">current_sign_in_at :datetime</text>
<text text-anchor="start" x="281" y="-466.8" font-family="Times,serif" font-size="14.00">last_sign_in_at :datetime</text>
<text text-anchor="start" x="281" y="-451.8" font-family="Times,serif" font-size="14.00">current_sign_in_ip :varchar</text>
<text text-anchor="start" x="281" y="-436.8" font-family="Times,serif" font-size="14.00">last_sign_in_ip :varchar</text>
<text text-anchor="start" x="281" y="-421.8" font-family="Times,serif" font-size="14.00">confirmation_token :varchar</text>
<text text-anchor="start" x="281" y="-406.8" font-family="Times,serif" font-size="14.00">confirmed_at :datetime</text>
<text text-anchor="start" x="281" y="-391.8" font-family="Times,serif" font-size="14.00">confirmation_sent_at :datetime</text>
<text text-anchor="start" x="281" y="-376.8" font-family="Times,serif" font-size="14.00">unconfirmed_email :varchar</text>
<text text-anchor="start" x="281" y="-361.8" font-family="Times,serif" font-size="14.00">failed_attempts :integer</text>
<text text-anchor="start" x="281" y="-346.8" font-family="Times,serif" font-size="14.00">unlock_token :varchar</text>
<text text-anchor="start" x="281" y="-331.8" font-family="Times,serif" font-size="14.00">locked_at :datetime</text>
<text text-anchor="start" x="281" y="-316.8" font-family="Times,serif" font-size="14.00">created_at :datetime</text>
<text text-anchor="start" x="281" y="-301.8" font-family="Times,serif" font-size="14.00">updated_at :datetime</text>
<text text-anchor="start" x="281" y="-286.8" font-family="Times,serif" font-size="14.00">image_file_name :varchar</text>
<text text-anchor="start" x="281" y="-271.8" font-family="Times,serif" font-size="14.00">image_content_type :varchar</text>
<text text-anchor="start" x="281" y="-256.8" font-family="Times,serif" font-size="14.00">image_file_size :integer</text>
<text text-anchor="start" x="281" y="-241.8" font-family="Times,serif" font-size="14.00">image_updated_at :datetime</text>
<text text-anchor="start" x="281" y="-226.8" font-family="Times,serif" font-size="14.00">name :varchar</text>
</g>
<!-- ApplicationRecord&#45;&gt;User -->
<g id="edge3" class="edge"><title>ApplicationRecord&#45;&gt;User</title>
<path fill="none" stroke="black" d="M313.003,-682.672C316.123,-669.17 320.828,-648.807 326.257,-625.308"/>
</g>
<!-- User&#45;&gt;Upload -->
<g id="edge2" class="edge"><title>User&#45;&gt;Upload</title>
<path fill="none" stroke="#d519d8" d="M332.094,-210.718C330.857,-204.358 329.639,-198.097 328.448,-191.977"/>
<ellipse fill="none" stroke="#d519d8" cx="332.889" cy="-214.803" rx="4.00001" ry="4.00001"/>
<polygon fill="#d519d8" stroke="#d519d8" points="328.382,-191.635 330.89,-180.96 327.427,-186.727 326.472,-181.819 326.472,-181.819 326.472,-181.819 327.427,-186.727 322.055,-182.678 328.382,-191.635 328.382,-191.635"/>
</g>
</g>
</svg>
