<?xml version="1.0" encoding="UTF-8" standalone="no"?>
<!DOCTYPE svg PUBLIC "-//W3C//DTD SVG 1.1//EN"
 "http://www.w3.org/Graphics/SVG/1.1/DTD/svg11.dtd">
<!-- Generated by graphviz version 2.36.0 (20140111.2315)
 -->
<!-- Title: models_diagram Pages: 1 -->
<svg width="394pt" height="230pt"
 viewBox="0.00 0.00 394.00 230.00" xmlns="http://www.w3.org/2000/svg" xmlns:xlink="http://www.w3.org/1999/xlink">
<g id="graph0" class="graph" transform="scale(1 1) rotate(0) translate(4 226)">
<title>models_diagram</title>
<polygon fill="none" stroke="none" points="-4,4 -4,-226 390,-226 390,4 -4,4"/>
<!-- _diagram_info -->
<g id="node1" class="node"><title>_diagram_info</title>
<text text-anchor="start" x="8" y="-207.6" font-family="Times,serif" font-size="13.00">Models diagram</text>
<text text-anchor="start" x="8" y="-193.6" font-family="Times,serif" font-size="13.00">Date: Nov 08 2016 &#45; 18:31</text>
<text text-anchor="start" x="8" y="-179.6" font-family="Times,serif" font-size="13.00">Migration version: 20161023120926</text>
<text text-anchor="start" x="8" y="-165.6" font-family="Times,serif" font-size="13.00">Generated by RailRoady 1.5.2</text>
<text text-anchor="start" x="8" y="-151.6" font-family="Times,serif" font-size="13.00">http://railroady.prestonlee.com</text>
</g>
<!-- Upload -->
<g id="node2" class="node"><title>Upload</title>
<ellipse fill="none" stroke="black" cx="308" cy="-18" rx="36.096" ry="18"/>
<text text-anchor="middle" x="308" y="-14.3" font-family="Times,serif" font-size="14.00">Upload</text>
</g>
<!-- ApplicationRecord -->
<g id="node3" class="node"><title>ApplicationRecord</title>
<ellipse fill="none" stroke="black" cx="309" cy="-183" rx="77.0154" ry="18"/>
<text text-anchor="middle" x="309" y="-179.3" font-family="Times,serif" font-size="14.00">ApplicationRecord</text>
</g>
<!-- ApplicationRecord&#45;&gt;Upload -->
<g id="edge1" class="edge"><title>ApplicationRecord&#45;&gt;Upload</title>
<path fill="none" stroke="black" d="M305.932,-164.858C302.444,-143.223 297.534,-104.865 300,-72 300.905,-59.9366 302.954,-46.4578 304.752,-36.1119"/>
</g>
<!-- User -->
<g id="node4" class="node"><title>User</title>
<ellipse fill="none" stroke="black" cx="336" cy="-90" rx="26.949" ry="18"/>
<text text-anchor="middle" x="336" y="-86.3" font-family="Times,serif" font-size="14.00">User</text>
</g>
<!-- ApplicationRecord&#45;&gt;User -->
<g id="edge3" class="edge"><title>ApplicationRecord&#45;&gt;User</title>
<path fill="none" stroke="black" d="M314.078,-164.884C318.936,-148.511 326.216,-123.975 331.036,-107.732"/>
</g>
<!-- User&#45;&gt;Upload -->
<g id="edge2" class="edge"><title>User&#45;&gt;Upload</title>
<path fill="none" stroke="#1cdb46" d="M326.311,-64.7779C323.818,-58.544 321.122,-51.8046 318.585,-45.4634"/>
<ellipse fill="none" stroke="#1cdb46" cx="327.879" cy="-68.6971" rx="4.00001" ry="4.00001"/>
<polygon fill="#1cdb46" stroke="#1cdb46" points="318.496,-45.241 318.961,-34.2849 316.639,-40.5986 314.782,-35.9562 314.782,-35.9562 314.782,-35.9562 316.639,-40.5986 310.604,-37.6275 318.496,-45.241 318.496,-45.241"/>
</g>
</g>
</svg>
